<svg xmlns="http://www.w3.org/2000/svg" viewBox="0 0 32 32" width="32" height="32">
  <!-- Background circle with gradient -->
  <defs>
    <linearGradient id="bgGradient" x1="0%" y1="0%" x2="100%" y2="100%">
      <stop offset="0%" style="stop-color:#667eea;stop-opacity:1" />
      <stop offset="100%" style="stop-color:#764ba2;stop-opacity:1" />
    </linearGradient>
    <filter id="shadow" x="-50%" y="-50%" width="200%" height="200%">
      <feDropShadow dx="1" dy="1" stdDeviation="1" flood-opacity="0.3"/>
    </filter>
  </defs>
  
  <!-- Background circle -->
  <circle cx="16" cy="16" r="15" fill="url(#bgGradient)" filter="url(#shadow)"/>
  
  <!-- Letter A -->
  <path d="M 8 24 L 10.5 18.5 L 13.5 18.5 L 16 24 L 18 24 L 12 10 L 12 10 L 6 24 Z M 11 16.5 L 12 14 L 13 16.5 Z" fill="white" font-weight="bold"/>
  
  <!-- Letter M -->
  <path d="M 18 24 L 18 10 L 20 10 L 22.5 18 L 25 10 L 27 10 L 27 24 L 25.5 24 L 25.5 13.5 L 23.2 21 L 21.8 21 L 19.5 13.5 L 19.5 24 Z" fill="white" font-weight="bold"/>
</svg>